<?xml version="1.0" encoding="UTF-8" standalone="no"?>
<svg
   viewBox="0 0 800 480"
   version="1.1"
   id="svg531"
   sodipodi:docname="RP3_DASH-dynamic.svg"
   xml:space="preserve"
   width="800"
   height="480"
   inkscape:export-filename="d1.svg"
   inkscape:export-xdpi="96"
   inkscape:export-ydpi="96"
   xmlns:inkscape="http://www.inkscape.org/namespaces/inkscape"
   xmlns:sodipodi="http://sodipodi.sourceforge.net/DTD/sodipodi-0.dtd"
   xmlns:xlink="http://www.w3.org/1999/xlink"
   xmlns="http://www.w3.org/2000/svg"
   xmlns:svg="http://www.w3.org/2000/svg"><sodipodi:namedview
     id="namedview533"
     pagecolor="#ffffff"
     bordercolor="#666666"
     borderopacity="1.0"
     inkscape:showpageshadow="2"
     inkscape:pageopacity="0.0"
     inkscape:pagecheckerboard="0"
     inkscape:deskcolor="#d1d1d1"
     showgrid="false" /><defs
     id="defs172"><linearGradient
       id="linearGradient7704"
       data-name="新增漸層色票 1"
       x1="15545.38"
       y1="87.57"
       x2="15573.27"
       y2="54.330002"
       gradientTransform="matrix(-1,0,0,1,15824.95,0)"
       gradientUnits="userSpaceOnUse"><stop
         offset="0"
         stop-color="#fff"
         stop-opacity="0"
         id="stop7692" /><stop
         offset=".1"
         stop-color="#f1f8fc"
         stop-opacity=".06"
         id="stop7694" /><stop
         offset=".3"
         stop-color="#cce7f5"
         stop-opacity=".22"
         id="stop7696" /><stop
         offset=".55"
         stop-color="#91cae9"
         stop-opacity=".48"
         id="stop7698" /><stop
         offset="0.71000004"
         stop-color="#91cae9"
         stop-opacity=".48"
         id="stop7734"
         style="stop-color:#68b7e1;stop-opacity:0.65882353;" /><stop
         offset="0.79000002"
         stop-color="#91cae9"
         stop-opacity=".48"
         id="stop7736"
         style="stop-color:#54addd;stop-opacity:0.74901961;" /><stop
         offset="0.83000004"
         stop-color="#91cae9"
         stop-opacity=".48"
         id="stop7738"
         style="stop-color:#4aa8db;stop-opacity:0.79215686;" /><stop
         offset="0.85000002"
         stop-color="#91cae9"
         stop-opacity=".48"
         id="stop7740"
         style="stop-color:#45a6da;stop-opacity:0.81568627;" /><stop
         offset="0.86000001"
         stop-color="#91cae9"
         stop-opacity=".48"
         id="stop7742"
         style="stop-color:#42a5d9;stop-opacity:0.82745098;" /><stop
         offset="0.86500001"
         stop-color="#91cae9"
         stop-opacity=".48"
         id="stop7744"
         style="stop-color:#41a4d9;stop-opacity:0.83137255;" /><stop
         offset="0.86750001"
         stop-color="#91cae9"
         stop-opacity=".48"
         id="stop7746"
         style="stop-color:#40a4d9;stop-opacity:0.83529412;" /><stop
         offset=".87"
         stop-color="#40a4d9"
         stop-opacity=".84"
         id="stop7700" /><stop
         offset="0.88625002"
         stop-color="#40a4d9"
         stop-opacity=".84"
         id="stop7716"
         style="stop-color:#3399dd;stop-opacity:0.85882353;" /><stop
         offset="0.89437503"
         stop-color="#40a4d9"
         stop-opacity=".84"
         id="stop7718"
         style="stop-color:#2c94df;stop-opacity:0.86666667;" /><stop
         offset="0.8984375"
         stop-color="#40a4d9"
         stop-opacity=".84"
         id="stop7720"
         style="stop-color:#2991e0;stop-opacity:0.87058824;" /><stop
         offset="0.90046877"
         stop-color="#40a4d9"
         stop-opacity=".84"
         id="stop7722"
         style="stop-color:#2790e1;stop-opacity:0.8745098;" /><stop
         offset="0.90148437"
         stop-color="#40a4d9"
         stop-opacity=".84"
         id="stop7724"
         style="stop-color:#268fe1;stop-opacity:0.8745098;" /><stop
         offset="0.9019922"
         stop-color="#40a4d9"
         stop-opacity=".84"
         id="stop7726"
         style="stop-color:#268fe1;stop-opacity:0.8745098;" /><stop
         offset="0.90224612"
         stop-color="#40a4d9"
         stop-opacity=".84"
         id="stop7728"
         style="stop-color:#268fe1;stop-opacity:0.8745098;" /><stop
         offset="0.90237308"
         stop-color="#40a4d9"
         stop-opacity=".84"
         id="stop7730"
         style="stop-color:#268fe1;stop-opacity:0.8745098;" /><stop
         offset="0.90243655"
         stop-color="#40a4d9"
         stop-opacity=".84"
         id="stop7732"
         style="stop-color:#268fe1;stop-opacity:0.8745098;" /><stop
         offset="0.90250003"
         stop-color="#40a4d9"
         stop-opacity=".84"
         id="stop7708"
         style="stop-color:#268fe2;stop-opacity:0.87843137;" /><stop
         offset="0.91875005"
         stop-color="#40a4d9"
         stop-opacity=".84"
         id="stop7710"
         style="stop-color:#1985e7;stop-opacity:0.89803922;" /><stop
         offset="0.926875"
         stop-color="#40a4d9"
         stop-opacity=".84"
         id="stop7712"
         style="stop-color:#1280e9;stop-opacity:0.90588235;" /></linearGradient><style
       id="style2">
      .cls-1 {
        fill: url(#_新增漸層色票_1-3);
      }

      .cls-1, .cls-2, .cls-3, .cls-4, .cls-5, .cls-6, .cls-7, .cls-8, .cls-9, .cls-10, .cls-11, .cls-12, .cls-13, .cls-14, .cls-15, .cls-16, .cls-17, .cls-18, .cls-19, .cls-20, .cls-21, .cls-22, .cls-23, .cls-24, .cls-25, .cls-26, .cls-27, .cls-28, .cls-29, .cls-30, .cls-31, .cls-32, .cls-33, .cls-34, .cls-35, .cls-36, .cls-37, .cls-38, .cls-39, .cls-40, .cls-41, .cls-42, .cls-43, .cls-44, .cls-45, .cls-46, .cls-47, .cls-48 {
        opacity: .5;
      }

      .cls-49 {
        fill: #262626;
      }

      .cls-50 {
        letter-spacing: -.04em;
      }

      .cls-51 {
        font-size: 200px;
      }

      .cls-51, .cls-52, .cls-53, .cls-54, .cls-55, .cls-56, .cls-57, .cls-58 {
        fill: #fff;
      }

      .cls-51, .cls-59, .cls-56 {
        font-family: KumbhSans-Bold, 'Kumbh Sans';
        font-weight: 700;
      }

      .cls-2 {
        fill: url(#_新增漸層色票_1-21);
      }

      .cls-3 {
        fill: url(#_新增漸層色票_1-46);
      }

      .cls-4 {
        fill: url(#_新增漸層色票_1-44);
      }

      .cls-5 {
        fill: url(#_新增漸層色票_1-25);
      }

      .cls-6 {
        fill: url(#_新增漸層色票_1-41);
      }

      .cls-7 {
        fill: url(#_新增漸層色票_1-8);
      }

      .cls-8 {
        fill: url(#_新增漸層色票_1-4);
      }

      .cls-9, .cls-60 {
        fill: #00b5ff;
      }

      .cls-61 {
        fill: url(#_未命名漸層_42-2);
      }

      .cls-59 {
        font-size: 243px;
      }

      .cls-59, .cls-62 {
        fill: #474747;
      }

      .cls-10 {
        fill: url(#_新增漸層色票_1-20);
      }

      .cls-11 {
        fill: url(#_新增漸層色票_1-29);
      }

      .cls-53, .cls-54, .cls-57, .cls-63, .cls-64 {
        font-family: Bahnschrift, Bahnschrift;
        font-variation-settings: 'wght' 400, 'wdth' 100;
      }

      .cls-53, .cls-57, .cls-63, .cls-64 {
        font-size: 25px;
      }

      .cls-53, .cls-65 {
        letter-spacing: -.02em;
      }

      .cls-12 {
        fill: url(#_新增漸層色票_1-43);
      }

      .cls-13 {
        fill: url(#_新增漸層色票_1-19);
      }

      .cls-54 {
        letter-spacing: -.02em;
      }

      .cls-54, .cls-56 {
        font-size: 36px;
      }

      .cls-14 {
        fill: url(#_新增漸層色票_1-38);
      }

      .cls-66 {
        fill: url(#_未命名漸層_42);
      }

      .cls-15 {
        fill: url(#_新增漸層色票_1-12);
      }

      .cls-67 {
        fill: #0a0a0a;
      }

      .cls-68 {
        letter-spacing: 0em;
      }

      .cls-16 {
        fill: url(#_新增漸層色票_1-23);
      }

      .cls-69, .cls-70 {
        opacity: .07;
      }

      .cls-55 {
        font-family: Bahnschrift-SemiBold, Bahnschrift;
        font-size: 24px;
        font-variation-settings: 'wght' 600, 'wdth' 100;
        font-weight: 600;
      }

      .cls-17 {
        fill: url(#_新增漸層色票_1-17);
      }

      .cls-18 {
        fill: url(#_新增漸層色票_1-37);
      }

      .cls-19 {
        fill: url(#_新增漸層色票_1-14);
      }

      .cls-71 {
        filter: url(#drop-shadow-34);
      }

      .cls-20 {
        fill: url(#_新增漸層色票_1-27);
      }

      .cls-21 {
        fill: url(#_新增漸層色票_1-45);
      }

      .cls-22 {
        fill: url(#_新增漸層色票_1);
      }

      .cls-72 {
        fill: #978c8c;
      }

      .cls-23 {
        fill: url(#_新增漸層色票_1-32);
      }

      .cls-24 {
        fill: url(#_新增漸層色票_1-26);
      }

      .cls-73 {
        letter-spacing: .02em;
      }

      .cls-25 {
        fill: url(#_新增漸層色票_1-36);
      }

      .cls-26 {
        fill: url(#_新增漸層色票_1-39);
      }

      .cls-27 {
        fill: url(#_新增漸層色票_1-31);
      }

      .cls-28 {
        fill: url(#_新增漸層色票_1-5);
      }

      .cls-74 {
        letter-spacing: -.03em;
      }

      .cls-29 {
        fill: url(#_新增漸層色票_1-28);
      }

      .cls-30 {
        fill: url(#_新增漸層色票_1-6);
      }

      .cls-31 {
        fill: url(#_新增漸層色票_1-22);
      }

      .cls-32 {
        fill: url(#_新增漸層色票_1-7);
      }

      .cls-33 {
        fill: url(#_新增漸層色票_1-11);
      }

      .cls-34 {
        fill: url(#_新增漸層色票_1-18);
      }

      .cls-75 {
        fill: none;
      }

      .cls-35 {
        fill: url(#_新增漸層色票_1-40);
      }

      .cls-36 {
        fill: url(#_新增漸層色票_1-35);
      }

      .cls-76 {
        letter-spacing: -.02em;
      }

      .cls-37 {
        fill: url(#_新增漸層色票_1-10);
      }

      .cls-63 {
        fill: #39afe5;
      }

      .cls-38 {
        fill: url(#_新增漸層色票_1-24);
      }

      .cls-77 {
        fill: #606060;
      }

      .cls-39 {
        fill: url(#_新增漸層色票_1-30);
      }

      .cls-78 {
        letter-spacing: 0em;
      }

      .cls-40 {
        fill: url(#_新增漸層色票_1-16);
      }

      .cls-58 {
        opacity: .06;
      }

      .cls-79 {
        letter-spacing: -.01em;
      }

      .cls-41 {
        fill: url(#_新增漸層色票_1-33);
      }

      .cls-42 {
        fill: url(#_新增漸層色票_1-9);
      }

      .cls-43 {
        fill: url(#_新增漸層色票_1-15);
      }

      .cls-44 {
        fill: url(#_新增漸層色票_1-34);
      }

      .cls-45 {
        fill: url(#_新增漸層色票_1-13);
      }

      .cls-46 {
        fill: url(#_新增漸層色票_1-42);
      }

      .cls-47 {
        fill: url(#_新增漸層色票_1-47);
      }

      .cls-70 {
        fill: url(#_未命名漸層_3);
      }

      .cls-48 {
        fill: url(#_新增漸層色票_1-2);
      }
    </style><linearGradient
       inkscape:collect="always"
       xlink:href="#linearGradient7704"
       id="linearGradient6154"
       x1="966.24585"
       y1="580.19513"
       x2="1176.7753"
       y2="423.00488"
       gradientUnits="userSpaceOnUse" /><linearGradient
       inkscape:collect="always"
       xlink:href="#linearGradient7704"
       id="linearGradient10618"
       gradientUnits="userSpaceOnUse"
       x1="966.24585"
       y1="580.19513"
       x2="1176.7753"
       y2="423.00488" /><linearGradient
       inkscape:collect="always"
       xlink:href="#linearGradient7704"
       id="linearGradient10620"
       gradientUnits="userSpaceOnUse"
       x1="966.24585"
       y1="580.19513"
       x2="1176.7753"
       y2="423.00488" /><linearGradient
       inkscape:collect="always"
       xlink:href="#linearGradient7704"
       id="linearGradient10622"
       gradientUnits="userSpaceOnUse"
       x1="966.24585"
       y1="580.19513"
       x2="1176.7753"
       y2="423.00488" /><linearGradient
       inkscape:collect="always"
       xlink:href="#linearGradient7704"
       id="linearGradient10624"
       gradientUnits="userSpaceOnUse"
       x1="966.24585"
       y1="580.19513"
       x2="1176.7753"
       y2="423.00488" /><linearGradient
       inkscape:collect="always"
       xlink:href="#linearGradient7704"
       id="linearGradient10626"
       gradientUnits="userSpaceOnUse"
       x1="966.24585"
       y1="580.19513"
       x2="1176.7753"
       y2="423.00488" /><linearGradient
       inkscape:collect="always"
       xlink:href="#linearGradient7704"
       id="linearGradient10628"
       gradientUnits="userSpaceOnUse"
       x1="966.24585"
       y1="580.19513"
       x2="1176.7753"
       y2="423.00488" /><linearGradient
       inkscape:collect="always"
       xlink:href="#linearGradient7704"
       id="linearGradient10630"
       gradientUnits="userSpaceOnUse"
       x1="966.24585"
       y1="580.19513"
       x2="1176.7753"
       y2="423.00488" /><linearGradient
       inkscape:collect="always"
       xlink:href="#linearGradient7704"
       id="linearGradient10632"
       gradientUnits="userSpaceOnUse"
       x1="966.24585"
       y1="580.19513"
       x2="1176.7753"
       y2="423.00488" /><linearGradient
       inkscape:collect="always"
       xlink:href="#linearGradient7704"
       id="linearGradient10634"
       gradientUnits="userSpaceOnUse"
       x1="966.24585"
       y1="580.19513"
       x2="1176.7753"
       y2="423.00488" /><linearGradient
       inkscape:collect="always"
       xlink:href="#linearGradient7704"
       id="linearGradient10636"
       gradientUnits="userSpaceOnUse"
       x1="966.24585"
       y1="580.19513"
       x2="1176.7753"
       y2="423.00488" /><linearGradient
       inkscape:collect="always"
       xlink:href="#linearGradient7704"
       id="linearGradient10638"
       gradientUnits="userSpaceOnUse"
       x1="966.24585"
       y1="580.19513"
       x2="1176.7753"
       y2="423.00488" /><linearGradient
       inkscape:collect="always"
       xlink:href="#linearGradient7704"
       id="linearGradient10640"
       gradientUnits="userSpaceOnUse"
       x1="966.24585"
       y1="580.19513"
       x2="1176.7753"
       y2="423.00488" /><linearGradient
       inkscape:collect="always"
       xlink:href="#linearGradient7704"
       id="linearGradient10642"
       gradientUnits="userSpaceOnUse"
       x1="966.24585"
       y1="580.19513"
       x2="1176.7753"
       y2="423.00488" /><linearGradient
       inkscape:collect="always"
       xlink:href="#linearGradient7704"
       id="linearGradient10644"
       gradientUnits="userSpaceOnUse"
       x1="966.24585"
       y1="580.19513"
       x2="1176.7753"
       y2="423.00488" /><linearGradient
       inkscape:collect="always"
       xlink:href="#linearGradient7704"
       id="linearGradient10646"
       gradientUnits="userSpaceOnUse"
       x1="966.24585"
       y1="580.19513"
       x2="1176.7753"
       y2="423.00488" /><linearGradient
       inkscape:collect="always"
       xlink:href="#linearGradient7704"
       id="linearGradient10648"
       gradientUnits="userSpaceOnUse"
       x1="966.24585"
       y1="580.19513"
       x2="1176.7753"
       y2="423.00488" /><linearGradient
       inkscape:collect="always"
       xlink:href="#linearGradient7704"
       id="linearGradient10650"
       gradientUnits="userSpaceOnUse"
       x1="966.24585"
       y1="580.19513"
       x2="1176.7753"
       y2="423.00488" /><linearGradient
       inkscape:collect="always"
       xlink:href="#linearGradient7704"
       id="linearGradient10652"
       gradientUnits="userSpaceOnUse"
       x1="966.24585"
       y1="580.19513"
       x2="1176.7753"
       y2="423.00488" /><linearGradient
       inkscape:collect="always"
       xlink:href="#linearGradient7704"
       id="linearGradient10654"
       gradientUnits="userSpaceOnUse"
       x1="966.24585"
       y1="580.19513"
       x2="1176.7753"
       y2="423.00488" /><linearGradient
       inkscape:collect="always"
       xlink:href="#linearGradient7704"
       id="linearGradient10656"
       gradientUnits="userSpaceOnUse"
       x1="966.24585"
       y1="580.19513"
       x2="1176.7753"
       y2="423.00488" /><linearGradient
       inkscape:collect="always"
       xlink:href="#linearGradient7704"
       id="linearGradient10658"
       gradientUnits="userSpaceOnUse"
       x1="966.24585"
       y1="580.19513"
       x2="1176.7753"
       y2="423.00488" /><linearGradient
       inkscape:collect="always"
       xlink:href="#linearGradient7704"
       id="linearGradient10660"
       gradientUnits="userSpaceOnUse"
       x1="966.24585"
       y1="580.19513"
       x2="1176.7753"
       y2="423.00488" /><linearGradient
       inkscape:collect="always"
       xlink:href="#linearGradient7704"
       id="linearGradient10662"
       gradientUnits="userSpaceOnUse"
       x1="966.24585"
       y1="580.19513"
       x2="1176.7753"
       y2="423.00488" /><linearGradient
       inkscape:collect="always"
       xlink:href="#linearGradient7704"
       id="linearGradient10664"
       gradientUnits="userSpaceOnUse"
       x1="966.24585"
       y1="580.19513"
       x2="1176.7753"
       y2="423.00488" /><linearGradient
       inkscape:collect="always"
       xlink:href="#linearGradient7704"
       id="linearGradient10666"
       gradientUnits="userSpaceOnUse"
       x1="966.24585"
       y1="580.19513"
       x2="1176.7753"
       y2="423.00488" /><linearGradient
       inkscape:collect="always"
       xlink:href="#linearGradient7704"
       id="linearGradient10668"
       gradientUnits="userSpaceOnUse"
       x1="966.24585"
       y1="580.19513"
       x2="1176.7753"
       y2="423.00488" /><linearGradient
       inkscape:collect="always"
       xlink:href="#linearGradient7704"
       id="linearGradient10670"
       gradientUnits="userSpaceOnUse"
       x1="966.24585"
       y1="580.19513"
       x2="1176.7753"
       y2="423.00488" /><linearGradient
       inkscape:collect="always"
       xlink:href="#linearGradient7704"
       id="linearGradient10672"
       gradientUnits="userSpaceOnUse"
       x1="966.24585"
       y1="580.19513"
       x2="1176.7753"
       y2="423.00488" /><linearGradient
       inkscape:collect="always"
       xlink:href="#linearGradient7704"
       id="linearGradient10674"
       gradientUnits="userSpaceOnUse"
       x1="966.24585"
       y1="580.19513"
       x2="1176.7753"
       y2="423.00488" /><linearGradient
       inkscape:collect="always"
       xlink:href="#linearGradient7704"
       id="linearGradient10676"
       gradientUnits="userSpaceOnUse"
       x1="966.24585"
       y1="580.19513"
       x2="1176.7753"
       y2="423.00488" /><linearGradient
       inkscape:collect="always"
       xlink:href="#linearGradient7704"
       id="linearGradient10678"
       gradientUnits="userSpaceOnUse"
       x1="966.24585"
       y1="580.19513"
       x2="1176.7753"
       y2="423.00488" /><linearGradient
       inkscape:collect="always"
       xlink:href="#linearGradient7704"
       id="linearGradient10680"
       gradientUnits="userSpaceOnUse"
       x1="966.24585"
       y1="580.19513"
       x2="1176.7753"
       y2="423.00488" /><linearGradient
       inkscape:collect="always"
       xlink:href="#linearGradient7704"
       id="linearGradient10682"
       gradientUnits="userSpaceOnUse"
       x1="966.24585"
       y1="580.19513"
       x2="1176.7753"
       y2="423.00488" /><linearGradient
       inkscape:collect="always"
       xlink:href="#linearGradient7704"
       id="linearGradient10684"
       gradientUnits="userSpaceOnUse"
       x1="966.24585"
       y1="580.19513"
       x2="1176.7753"
       y2="423.00488" /><linearGradient
       inkscape:collect="always"
       xlink:href="#linearGradient7704"
       id="linearGradient10686"
       gradientUnits="userSpaceOnUse"
       x1="966.24585"
       y1="580.19513"
       x2="1176.7753"
       y2="423.00488" /><linearGradient
       inkscape:collect="always"
       xlink:href="#linearGradient7704"
       id="linearGradient10688"
       gradientUnits="userSpaceOnUse"
       x1="966.24585"
       y1="580.19513"
       x2="1176.7753"
       y2="423.00488" /><linearGradient
       inkscape:collect="always"
       xlink:href="#linearGradient7704"
       id="linearGradient10690"
       gradientUnits="userSpaceOnUse"
       x1="966.24585"
       y1="580.19513"
       x2="1176.7753"
       y2="423.00488" /><linearGradient
       inkscape:collect="always"
       xlink:href="#linearGradient7704"
       id="linearGradient10692"
       gradientUnits="userSpaceOnUse"
       x1="966.24585"
       y1="580.19513"
       x2="1176.7753"
       y2="423.00488" /><linearGradient
       inkscape:collect="always"
       xlink:href="#linearGradient7704"
       id="linearGradient10694"
       gradientUnits="userSpaceOnUse"
       x1="966.24585"
       y1="580.19513"
       x2="1176.7753"
       y2="423.00488" /><linearGradient
       inkscape:collect="always"
       xlink:href="#linearGradient7704"
       id="linearGradient10696"
       gradientUnits="userSpaceOnUse"
       x1="966.24585"
       y1="580.19513"
       x2="1176.7753"
       y2="423.00488" /><linearGradient
       inkscape:collect="always"
       xlink:href="#linearGradient7704"
       id="linearGradient10698"
       gradientUnits="userSpaceOnUse"
       x1="966.24585"
       y1="580.19513"
       x2="1176.7753"
       y2="423.00488" /></defs><g
     id="g392"
     transform="matrix(0.65884679,0,0,0.67930201,-40.620575,21.0211)"
     style="fill:url(#linearGradient6154);fill-opacity:1"><path
       class="cls-28"
       d="m 972.21,554.24 2.89,46.59 0.33,5.31 c -5.33,0.39 -10.71,0.6 -16.13,0.66 v -52.16 c 4.3,0 8.64,-0.13 12.92,-0.4 z"
       id="path310"
       style="fill:url(#linearGradient10618);fill-opacity:1" /><path
       class="cls-30"
       d="m 975.1,600.83 -2.87,-46.59 c 4.28,-0.26 8.59,-0.67 12.83,-1.2 l 5.8,46.32 0.64,5.1 c -5.3,0.72 -10.66,1.29 -16.06,1.68 l -0.33,-5.31 z"
       id="path312"
       style="fill:url(#linearGradient10620);fill-opacity:1" /><path
       class="cls-32"
       d="m 985.05,553.04 c 0,0 0,0 0,0 v 0 c 4.25,-0.53 8.53,-1.21 12.73,-2 l 8.69,45.86 0.93,4.89 c -5.25,1.05 -10.56,1.94 -15.92,2.67 l -0.64,-5.1 z"
       id="path314"
       style="fill:url(#linearGradient10622);fill-opacity:1" /><polygon
       class="cls-7"
       points="990.85,599.36 985.05,553.04 "
       id="polygon316"
       style="fill:url(#linearGradient10624);fill-opacity:1" /><path
       class="cls-42"
       d="m 1007.4,601.79 -0.93,-4.89 -8.68,-45.86 c 4.2,-0.8 8.41,-1.73 12.53,-2.79 l 11.6,45.21 1.19,4.65 c -5.17,1.38 -10.41,2.61 -15.7,3.68 z"
       id="path318"
       style="fill:url(#linearGradient10626);fill-opacity:1" /><path
       class="cls-37"
       d="m 1023.11,598.11 -1.19,-4.65 -11.56,-45.22 c 4.13,-1.05 8.28,-2.26 12.34,-3.58 l 14.42,44.39 1.43,4.42 c -5.08,1.71 -10.23,3.25 -15.44,4.64 z"
       id="path320"
       style="fill:url(#linearGradient10628);fill-opacity:1" /><path
       class="cls-33"
       d="m 1038.55,593.47 -1.44,-4.42 -14.4,-44.4 c 4.06,-1.32 8.13,-2.78 12.09,-4.35 l 17.2,43.39 1.65,4.15 c -4.96,2.02 -9.99,3.91 -15.1,5.62 z"
       id="path322"
       style="fill:url(#linearGradient10630);fill-opacity:1" /><path
       class="cls-15"
       d="m 1053.64,587.85 -1.65,-4.15 -17.19,-43.4 c 3.97,-1.57 7.94,-3.29 11.8,-5.12 l 21.75,46.13 c -4.82,2.33 -9.73,4.5 -14.71,6.53 z"
       id="path324"
       style="fill:url(#linearGradient10632);fill-opacity:1" /><path
       class="cls-45"
       d="m 1068.36,581.32 -21.75,-46.13 c 4.34,-2.04 8.64,-4.26 12.78,-6.58 l 22.83,40.71 2.03,3.62 c -5.19,2.97 -10.48,5.77 -15.89,8.38 z"
       id="path326"
       style="fill:url(#linearGradient10634);fill-opacity:1" /><path
       class="cls-19"
       d="m 1084.24,572.94 -2.03,-3.62 -22.83,-40.71 c 3.31,-1.86 6.6,-3.82 9.77,-5.84 l 25.05,39.38 2.15,3.39 c -3.97,2.57 -8.01,5.05 -12.12,7.4 z"
       id="path328"
       style="fill:url(#linearGradient10636);fill-opacity:1" /><path
       class="cls-43"
       d="m 1094.21,562.15 -25.04,-39.39 c 3.62,-2.3 7.2,-4.74 10.64,-7.25 v 0 c 0,0 0,0 0,0 l 27.48,37.73 2.28,3.13 c -4.3,3.19 -8.7,6.24 -13.2,9.16 l -2.15,-3.39 z"
       id="path330"
       style="fill:url(#linearGradient10638);fill-opacity:1" /><path
       class="cls-40"
       d="m 1079.81,515.51 c 3.46,-2.52 6.9,-5.19 10.2,-7.92 0,0 0,0 0,0 l 29.78,35.94 2.38,2.87 c -4.09,3.45 -8.29,6.77 -12.59,9.96 l -2.28,-3.13 -27.48,-37.73 z"
       id="path332"
       style="fill:url(#linearGradient10640);fill-opacity:1" /><path
       class="cls-17"
       d="m 1090.01,507.59 c 0,0 0,0 0,0 3.3,-2.74 6.56,-5.61 9.67,-8.53 l 34.44,36.66 c -3.87,3.69 -7.86,7.25 -11.96,10.7 l -2.38,-2.87 z"
       id="path334"
       style="fill:url(#linearGradient10642);fill-opacity:1" /><path
       class="cls-34"
       d="m 1134.11,535.72 -34.44,-36.66 c 3.12,-2.93 6.19,-6 9.12,-9.12 l 34.02,31.96 2.53,2.38 c -3.63,3.92 -7.38,7.75 -11.24,11.44 z"
       id="path336"
       style="fill:url(#linearGradient10644);fill-opacity:1" /><path
       class="cls-13"
       d="m 1108.81,489.93 c 0,0 0,0 -0.01,0.01 v 0 c 2.93,-3.12 5.8,-6.37 8.53,-9.67 l 35.95,29.77 2.6,2.15 c -3.38,4.14 -6.9,8.17 -10.53,12.09 l -2.54,-2.38 -34.01,-31.97 z"
       id="path338"
       style="fill:url(#linearGradient10646);fill-opacity:1" /><path
       class="cls-10"
       d="m 1155.88,512.18 -2.6,-2.15 -35.95,-29.78 c 2.73,-3.29 5.39,-6.72 7.91,-10.18 l 37.74,27.46 2.64,1.92 c -3.12,4.34 -6.37,8.58 -9.75,12.72 z"
       id="path340"
       style="fill:url(#linearGradient10648);fill-opacity:1" /><path
       class="cls-2"
       d="m 1162.99,497.54 -37.73,-27.48 c 2.5,-3.43 4.94,-7.01 7.25,-10.64 l 39.39,25.05 2.67,1.7 c -2.84,4.53 -5.82,8.97 -8.93,13.3 l -2.64,-1.92 z"
       id="path342"
       style="fill:url(#linearGradient10650);fill-opacity:1" /><path
       class="cls-31"
       d="m 1132.51,459.42 v 0 c 0,0 0,0 0,0 2.29,-3.6 4.5,-7.33 6.57,-11.09 l 40.88,22.53 2.71,1.49 c -2.56,4.7 -5.27,9.3 -8.1,13.81 l -2.67,-1.7 -39.38,-25.05 z"
       id="path344"
       style="fill:url(#linearGradient10652);fill-opacity:1" /><path
       class="cls-16"
       d="m 1139.08,448.33 c 0,0 0,0 0,0 v 0 c 2.05,-3.72 4.02,-7.58 5.85,-11.47 l 42.22,19.9 2.71,1.28 c -2.26,4.85 -4.65,9.62 -7.2,14.3 l -2.71,-1.49 -40.88,-22.53 z"
       id="path346"
       style="fill:url(#linearGradient10654);fill-opacity:1" /><path
       class="cls-38"
       d="m 1189.87,458.05 -2.71,-1.28 -42.22,-19.91 c 1.83,-3.87 3.55,-7.84 5.11,-11.79 l 43.4,17.19 2.74,1.09 c -1.95,4.98 -4.07,9.88 -6.31,14.71 z"
       id="path348"
       style="fill:url(#linearGradient10656);fill-opacity:1" /><path
       class="cls-5"
       d="m 1193.44,442.25 -43.39,-17.2 c 1.57,-3.96 3.04,-8.03 4.36,-12.11 v 0 c 0,0 0,0 0,0 l 44.39,14.42 2.73,0.89 c -1.64,5.1 -3.42,10.13 -5.36,15.08 l -2.74,-1.08 z"
       id="path350"
       style="fill:url(#linearGradient10658);fill-opacity:1" /><path
       class="cls-24"
       d="m 1154.41,412.94 c 1.31,-4.02 2.51,-8.17 3.58,-12.34 l 45.22,11.57 2.74,0.7 c -1.31,5.19 -2.79,10.32 -4.42,15.38 l -2.73,-0.89 z"
       id="path352"
       style="fill:url(#linearGradient10660);fill-opacity:1" /><path
       class="cls-20"
       d="m 1157.99,400.59 c 0,0 0,0.01 0,0.02 v 0 c 1.06,-4.14 2,-8.37 2.8,-12.57 v 0 c 0,0 0,0 0,0 l 45.86,8.69 2.74,0.52 c -0.99,5.27 -2.13,10.48 -3.43,15.63 l -2.74,-0.7 -45.22,-11.59 z"
       id="path354"
       style="fill:url(#linearGradient10662);fill-opacity:1" /><path
       class="cls-29"
       d="m 1160.79,388.03 c 0.79,-4.2 1.47,-8.47 2,-12.71 0,0 0,0 0,0.01 l 46.32,5.77 2.75,0.34 c -0.66,5.32 -1.49,10.59 -2.46,15.8 l -2.74,-0.52 -45.86,-8.7 z"
       id="path356"
       style="fill:url(#linearGradient10664);fill-opacity:1" /><path
       class="cls-11"
       d="m 1162.79,375.31 c 0,0 0,0 0,0.01 0.53,-4.28 0.94,-8.6 1.2,-12.84 l 46.59,2.87 2.74,0.17 c -0.33,5.35 -0.81,10.66 -1.46,15.92 l -2.75,-0.34 z"
       id="path358"
       style="fill:url(#linearGradient10666);fill-opacity:1" /><path
       class="cls-39"
       d="m 1213.82,349.55 c 0,5.37 -0.18,10.69 -0.51,15.98 l -2.74,-0.17 -46.59,-2.89 c 0.27,-4.27 0.4,-8.62 0.4,-12.92 z"
       id="path360"
       style="fill:url(#linearGradient10668);fill-opacity:1" /><path
       class="cls-27"
       d="m 1213.82,349.55 h -49.44 c 0,-4.3 -0.13,-8.65 -0.4,-12.92 l 46.59,-2.89 2.74,-0.17 c 0.32,5.29 0.51,10.61 0.51,15.98 z"
       id="path362"
       style="fill:url(#linearGradient10670);fill-opacity:1" /><path
       class="cls-23"
       d="m 1210.57,333.74 -46.59,2.87 c -0.26,-4.24 -0.67,-8.56 -1.2,-12.84 0,0 0,0 0,0.01 l 46.32,-5.79 2.75,-0.34 c 0.65,5.26 1.13,10.57 1.46,15.92 z"
       id="path364"
       style="fill:url(#linearGradient10672);fill-opacity:1" /><path
       class="cls-41"
       d="m 1162.78,323.76 c 0,0 0,0 0,0.01 -0.53,-4.24 -1.2,-8.52 -2,-12.71 l 45.86,-8.7 2.74,-0.52 c 0.98,5.21 1.81,10.48 2.46,15.8 l -2.75,0.34 -46.32,5.77 z"
       id="path366"
       style="fill:url(#linearGradient10674);fill-opacity:1" /><path
       class="cls-44"
       d="m 1160.79,311.05 c 0,0 0,0 0,0 v 0 c -0.8,-4.2 -1.74,-8.43 -2.8,-12.57 v 0 c 0,0 0,0.01 0,0.02 l 45.22,-11.59 2.74,-0.7 c 1.3,5.15 2.44,10.36 3.43,15.63 l -2.74,0.52 -45.86,8.69 z"
       id="path368"
       style="fill:url(#linearGradient10676);fill-opacity:1" /><path
       class="cls-36"
       d="m 1157.99,298.49 c -1.07,-4.16 -2.27,-8.31 -3.58,-12.34 v 0 c 0,0 44.39,-14.42 44.39,-14.42 l 2.73,-0.89 c 1.62,5.06 3.1,10.19 4.42,15.38 l -2.74,0.7 z"
       id="path370"
       style="fill:url(#linearGradient10678);fill-opacity:1" /><path
       class="cls-25"
       d="m 1154.41,286.14 c 0,0 0,0 0,0 -1.33,-4.08 -2.79,-8.15 -4.36,-12.1 l 43.39,-17.2 2.74,-1.08 c 1.94,4.95 3.72,9.98 5.36,15.08 l -2.73,0.89 -44.4,14.42 z"
       id="path372"
       style="fill:url(#linearGradient10680);fill-opacity:1" /><path
       class="cls-18"
       d="m 1196.18,255.75 -2.74,1.09 -43.4,17.19 c -1.57,-3.95 -3.28,-7.92 -5.11,-11.79 l 42.22,-19.91 2.71,-1.28 c 2.25,4.83 4.36,9.73 6.31,14.71 z"
       id="path374"
       style="fill:url(#linearGradient10682);fill-opacity:1" /><path
       class="cls-14"
       d="m 1187.15,242.32 -42.22,19.9 c -1.83,-3.88 -3.8,-7.74 -5.85,-11.46 v 0 c 0,0 0,0 0,0 l 40.88,-22.53 2.71,-1.49 c 2.55,4.68 4.94,9.45 7.2,14.3 l -2.71,1.28 z"
       id="path376"
       style="fill:url(#linearGradient10684);fill-opacity:1" /><path
       class="cls-26"
       d="m 1139.08,250.76 c -2.07,-3.76 -4.28,-7.49 -6.57,-11.09 v 0 c 0,0 0,0 0,0 l 39.38,-25.05 2.67,-1.7 c 2.84,4.52 5.55,9.12 8.1,13.81 l -2.71,1.49 -40.88,22.53 z"
       id="path378"
       style="fill:url(#linearGradient10686);fill-opacity:1" /><path
       class="cls-35"
       d="m 1132.5,239.67 c -2.31,-3.63 -4.75,-7.21 -7.25,-10.64 l 37.73,-27.48 2.64,-1.92 c 3.11,4.33 6.09,8.77 8.93,13.3 l -2.67,1.7 -39.39,25.05 z"
       id="path380"
       style="fill:url(#linearGradient10688);fill-opacity:1" /><path
       class="cls-6"
       d="m 1165.63,199.62 -2.64,1.92 -37.74,27.46 c -2.51,-3.46 -5.18,-6.88 -7.91,-10.18 l 35.95,-29.78 2.6,-2.15 c 3.38,4.13 6.63,8.37 9.75,12.72 z"
       id="path382"
       style="fill:url(#linearGradient10690);fill-opacity:1" /><path
       class="cls-46"
       d="m 1153.29,189.06 -35.95,29.77 c -2.73,-3.3 -5.6,-6.55 -8.53,-9.67 v 0 c 0,0 0,0 0.01,0.01 l 34.01,-31.97 2.54,-2.38 c 3.63,3.92 7.14,7.95 10.53,12.09 l -2.6,2.15 z"
       id="path384"
       style="fill:url(#linearGradient10692);fill-opacity:1" /><path
       class="cls-12"
       d="m 1108.8,209.16 c -2.94,-3.13 -6.01,-6.2 -9.12,-9.12 l 34.44,-36.66 c 3.87,3.69 7.61,7.51 11.24,11.44 l -2.53,2.38 -34.02,31.96 z"
       id="path386"
       style="fill:url(#linearGradient10694);fill-opacity:1" /><path
       class="cls-4"
       d="m 1099.68,200.03 c -3.12,-2.93 -6.37,-5.8 -9.68,-8.54 v 0 c 0,0 0,0 0,0 l 29.77,-35.95 2.38,-2.87 c 4.09,3.45 8.09,7.01 11.96,10.7 l -34.44,36.66 z"
       id="path388"
       style="fill:url(#linearGradient10696);fill-opacity:1" /><path
       class="cls-21"
       d="m 1090,191.49 c -3.32,-2.75 -6.76,-5.42 -10.24,-7.95 l 27.45,-37.76 2.28,-3.13 c 4.33,3.21 8.56,6.55 12.68,10.02 l -2.38,2.87 -29.78,35.94 z"
       id="path390"
       style="fill:url(#linearGradient10698);fill-opacity:1" /></g><rect
     style="fill:none;fill-opacity:0.302554;stroke:#e2e816;stroke-width:0"
     id="standbyArea"
     width="158.64406"
     height="62.542374"
     x="323.38983"
     y="289.83051"
     inkscape:label="#standbyArea" /><rect
     style="fill:none;fill-opacity:0.302554;stroke:#e2e816;stroke-width:0"
     id="batteryArea"
     width="137.28813"
     height="114.40678"
     x="526.27118"
     y="176.54237"
     inkscape:label="#batteryArea" /><rect
     style="fill:none;fill-opacity:0.302554;stroke:#e2e816;stroke-width:0"
     id="speedArea"
     width="137.28813"
     height="114.40678"
     x="131.35594"
     y="178.69492"
     inkscape:label="#speedArea" /><rect
     style="fill:#0a0a0a;fill-opacity:1;stroke:#e2e816;stroke-width:0"
     id="bluetooth"
     width="27.457626"
     height="27.457626"
     x="709.32202"
     y="46.525425"
     inkscape:label="#bluetooth" /><rect
     style="fill:#0a0a0a;fill-opacity:1;stroke:#e2e816;stroke-width:0"
     id="loading"
     width="62.542374"
     height="20.59322"
     x="200.59322"
     y="436.27118"
     inkscape:label="#loading" /></svg>
